<svg xmlns="http://www.w3.org/2000/svg" viewBox="0 0 1024 1024" role="img" aria-labelledby="title desc"><title id="title">Cypress Command - cc-04c-app-icon</title><desc id="desc">Full bleed square app source with no pre-rounded container. Platform applies its mask. Reverse one-color mark inside generous safe area.</desc><rect width="1024" height="1024" fill="#1E4D3A"/><g transform="translate(248 261) scale(3.142857)"><path fill="#F3EDE0" d="M32 0H136C153.673 0 168 14.327 168 32V58H135V35Q135 30 130 30H37Q32 30 32 35V125Q32 130 37 130H130Q135 130 135 125V96H168V128C168 145.673 153.673 160 136 160H32C14.327 160 0 145.673 0 128V32C0 14.327 14.327 0 32 0Z"/><rect x="61" y="56" width="48" height="48" fill="#F3EDE0"/></g></svg>
